<?xml version="1.0" encoding="utf-8"?>
<!-- Generator: Adobe Illustrator 17.1.0, SVG Export Plug-In . SVG Version: 6.00 Build 0)  -->
<!DOCTYPE svg PUBLIC "-//W3C//DTD SVG 1.1//EN" "http://www.w3.org/Graphics/SVG/1.1/DTD/svg11.dtd">
<svg version="1.1" id="Shape_5_copy_17_1_" opacity="0.8"
	 xmlns="http://www.w3.org/2000/svg" xmlns:xlink="http://www.w3.org/1999/xlink" x="0px" y="0px" viewBox="0 0 16 17"
	 enable-background="new 0 0 16 17" xml:space="preserve">
<g id="Shape_5_copy_17">
	<g>
		<path fill-rule="evenodd" clip-rule="evenodd" d="M15.5,14.1L13,11.6c1.6-2.7,1.3-6.2-1-8.6C9.2,0.3,4.8,0.3,2,3
			c-2.7,2.7-2.7,7.2,0,9.9c2.3,2.3,5.9,2.7,8.6,1l2.6,2.6c0.7,0.7,1.7,0.7,2.4,0C16.2,15.9,16.2,14.8,15.5,14.1z M9.9,10.9
			c-1.6,1.6-4.2,1.6-5.9,0C2.4,9.3,2.4,6.6,4.1,5c1.6-1.6,4.2-1.6,5.9,0C11.5,6.6,11.5,9.3,9.9,10.9z"/>
	</g>
</g>
</svg>
