<?xml version="1.0" encoding="utf-8"?>
<!-- Generator: Adobe Illustrator 17.1.0, SVG Export Plug-In . SVG Version: 6.00 Build 0)  -->
<!DOCTYPE svg PUBLIC "-//W3C//DTD SVG 1.1//EN" "http://www.w3.org/Graphics/SVG/1.1/DTD/svg11.dtd">
<svg version="1.1" id="Shape_9_copy_16_1_" opacity="0.8"
	 xmlns="http://www.w3.org/2000/svg" xmlns:xlink="http://www.w3.org/1999/xlink" x="0px" y="0px" viewBox="0 0 19 17"
	 enable-background="new 0 0 19 17" xml:space="preserve">
<g id="Shape_9_copy_16">
	<g>
		<path fill-rule="evenodd" clip-rule="evenodd" d="M13.5,13.9c-0.8,0-1.5,0.7-1.5,1.5c0,0.8,0.7,1.5,1.5,1.5c0.8,0,1.5-0.7,1.5-1.5
			C15,14.6,14.3,13.9,13.5,13.9z M16.9,3H6l0-0.5C6,1.6,5.5,1,4.6,1H2.4C1.8,1,1,1.5,1,2.5C1,3.4,1.8,4,2.4,4H3l0,8.2
			C3.2,12.6,3.6,13,4.2,13h10.5c0.5,0,0.9-0.3,1.1-0.8L18,4.5C18.2,3.7,17.7,3,16.9,3z M13.1,10.1H6l0-4.1h8.4L13.1,10.1z M4.5,13.9
			c-0.8,0-1.5,0.7-1.5,1.5C3,16.3,3.6,17,4.5,17C5.3,17,6,16.3,6,15.5C6,14.6,5.3,13.9,4.5,13.9z"/>
	</g>
</g>
</svg>
