<?xml version="1.0" encoding="utf-8"?>
<!-- Generator: Adobe Illustrator 16.2.0, SVG Export Plug-In . SVG Version: 6.00 Build 0)  -->
<!DOCTYPE svg PUBLIC "-//W3C//DTD SVG 1.1//EN" "http://www.w3.org/Graphics/SVG/1.1/DTD/svg11.dtd">
<svg version="1.1" xmlns="http://www.w3.org/2000/svg" xmlns:xlink="http://www.w3.org/1999/xlink" x="0px" y="0px" width="48px"
	 height="24px" viewBox="0 0 48 24" enable-background="new 0 0 48 24" xml:space="preserve">
<g>
	<path fill-rule="evenodd" clip-rule="evenodd" fill="#FFFFFF" d="M12,0.01C5.377,0.01,0.01,5.378,0.01,12S5.377,23.99,12,23.99
		c6.621,0,11.99-5.368,11.99-11.99S18.621,0.01,12,0.01z M12,22.053c-5.553,0-10.053-4.5-10.053-10.053
		c0-5.552,4.5-10.053,10.053-10.053c5.552,0,10.053,4.501,10.053,10.053C22.053,17.553,17.552,22.053,12,22.053z M13.083,6.406
		L7.489,12l5.594,5.594l1.982-1.982L11.454,12l3.611-3.611L13.083,6.406z"/>
	<path fill-rule="evenodd" clip-rule="evenodd" fill="#FFFFFF" d="M36,0.01c-6.621,0-11.99,5.368-11.99,11.99
		S29.379,23.99,36,23.99c6.623,0,11.99-5.368,11.99-11.99S42.623,0.01,36,0.01z M36,22.053c-5.552,0-10.053-4.5-10.053-10.053
		c0-5.552,4.501-10.053,10.053-10.053c5.553,0,10.053,4.501,10.053,10.053C46.053,17.553,41.553,22.053,36,22.053z M32.935,8.389
		L36.546,12l-3.611,3.611l1.982,1.982L40.511,12l-5.594-5.594L32.935,8.389z"/>
</g>
</svg>
